<svg width="180" height="108" viewBox="0 0 180 108" fill="none" xmlns="http://www.w3.org/2000/svg">
<path fill-rule="evenodd" clip-rule="evenodd" d="M154.092 19.407C157.197 30.0809 160.172 40.3666 160.69 42.1779L161.596 45.6065H150.404C143.612 45.6065 139.019 45.3477 138.76 44.9596C138.566 44.5714 137.531 44.3126 136.56 44.3126C135.332 44.3126 134.361 43.7304 133.391 42.3719C130.738 38.814 127.245 37.5202 120.324 37.5202C115.148 37.5202 113.725 37.779 111.396 39.0081C109.844 39.849 108.097 41.3369 107.515 42.4367C106.674 43.8598 105.962 44.3126 104.474 44.3126C101.24 44.3126 100.917 45.1536 100.917 53.6929C100.917 63.0728 101.693 65.2075 106.156 67.4718C108.873 68.8949 109.52 68.9594 121.294 68.7653C132.938 68.5712 133.714 68.5067 135.72 67.0837C138.954 64.7549 139.731 62.6201 139.731 55.9567V50.1346H151.375H162.954L164.572 55.4395C165.168 57.3986 166.241 61.069 167.366 64.9169L167.369 64.9271L167.371 64.9324C167.953 66.9236 168.549 68.9623 169.1 70.8356C174.081 88.0433 177.833 100.787 178.803 104.022L179.677 106.953V107.062H161.078H142.448L140.96 101.563L139.537 96.0647H120.259H100.981L99.9463 99.8165C99.6551 100.819 99.3315 101.919 99.0482 102.882L99.0467 102.888C98.7644 103.847 98.5227 104.669 98.3937 105.121L97.876 106.739L49.6171 106.933L1.2938 107.062V103.375C1.2938 101.305 1.48787 95.0298 1.74663 89.4663L2.13477 79.3101L31.7628 79.116C60.291 78.922 61.3908 78.857 62.7493 77.628C64.8196 75.7518 65.4018 73.8111 64.6255 71.4823C63.3315 67.86 61.9085 67.6009 44.442 67.6009C35.7736 67.6009 27.0404 67.3423 25.1644 66.9542C20.1186 66.0483 12.7439 62.1669 9.186 58.6091C3.04043 52.4634 0 44.1833 0 33.5094C0 20.7655 4.07547 11.9677 12.6793 6.01617C17.0781 3.04043 22.1887 1.09973 27.6873 0.388141C28.9674 0.215164 37.6107 0.0791908 50.2735 6.47777e-06L148.399 0L154.092 19.407ZM37.1968 37.5202C34.4798 34.8679 35.1267 30.7278 38.4906 28.9164C39.9137 28.0755 83.4503 27.8167 83.4503 28.593C83.4503 28.8518 82.674 31.7628 81.7037 35.1267L79.957 41.2076L77.9513 40.7547C72.5174 39.5903 66.3071 39.2021 53.1754 39.1375H38.7493L37.1968 37.5202Z" fill="white" fill-opacity="0.17"/>
</svg>
